<svg xmlns="http://www.w3.org/2000/svg" xmlns:xlink="http://www.w3.org/1999/xlink" width="60" height="60" viewBox="0 0 60 60">
  <defs>
    <clipPath id="clip-path">
      <circle id="Ellipse_410" data-name="Ellipse 410" cx="30" cy="30" r="30" transform="translate(101 281)" fill="#fff" stroke="#dfdfdf" stroke-width="1"/>
    </clipPath>
  </defs>
  <g id="Mask_Group_8" data-name="Mask Group 8" transform="translate(-101 -281)" clip-path="url(#clip-path)">
    <g id="groom" transform="translate(109 284.775)">
      <path id="Path_11538" data-name="Path 11538" d="M172.563,167.733h10.359v11.179H172.563Z" transform="translate(-155.378 -145.444)" fill="#edba89"/>
      <path id="Path_11539" data-name="Path 11539" d="M158.807,240h8.349c2.311-7.588,4.533-24.14,4.533-24.14l-3.469-3.92-5.111,3.042-2.883-.815-4.373-1.248s-.377,1.81,0,8.521C156.012,224.282,157.334,236.072,158.807,240Z" transform="translate(-140.743 -183.779)" fill="#d5d6db"/>
      <g id="Group_59154" data-name="Group 59154" transform="translate(12.781 1.996)">
        <path id="Path_11540" data-name="Path 11540" d="M140.418,102.8c.761-.123,1.585,1.05,1.839,2.62s-.156,2.945-.918,3.068-1.585-1.05-1.84-2.62.157-2.944.918-3.068Z" transform="translate(-139.424 -91.131)" fill="#edba89"/>
        <path id="Path_11541" data-name="Path 11541" d="M263.683,102.8c-.761-.123-1.585,1.05-1.84,2.62s.156,2.945.918,3.068,1.585-1.05,1.84-2.62-.156-2.944-.918-3.068Z" transform="translate(-245.51 -91.131)" fill="#edba89"/>
        <path id="Path_11542" data-name="Path 11542" d="M157.069,15.02c-4.54,0-8.56,4.037-8.221,13.055.237,6.318,3.681,11.448,8.221,11.448s8.221-5.125,8.221-11.448-3.681-13.055-8.221-13.055Z" transform="translate(-147.578 -15.02)" fill="#fbcb99"/>
      </g>
      <path id="Path_11543" data-name="Path 11543" d="M157.514,4.679c-.8-.941-.369-4.088-4.594-4.343-3.127-.189-8.407-1.631-12.238,3.361a10.857,10.857,0,0,0-1.164,4.215,17.282,17.282,0,0,0,1.352,8.6c1.177,2.7,1.221-6.347,1.268-7.541.2-5.137,10.76-1.514,11.277-2.189l.173-.023A8.283,8.283,0,0,1,156.22,12.3c0,3.212.888,4.215.888,4.215s3.5-8.177.405-11.834Z" transform="translate(-126.651 0.001)" fill="#2f4859"/>
      <path id="Path_11544" data-name="Path 11544" d="M168.157,195.23l-2.673-4.52-5.169,5.782-5.19-5.784-2.672,4.522,3.76,5.753,4.092-4.412,4.092,4.412Z" transform="translate(-137.94 -165.366)" fill="#ebf0f3"/>
      <path id="Path_11545" data-name="Path 11545" d="M66.184,234.407c-1.437-5.767-5.748-18.622-6.246-22.49-.218-1.745-.369-3.2-.47-4.278-.118-1.274-.2-2.015-.2-2.149a10.66,10.66,0,0,1-3.506,3.089,23.148,23.148,0,0,1-5.553,2.466A7.763,7.763,0,0,0,44,217.928c-.254,2.737-.518,13.477-.765,16.478H66.184Z" transform="translate(-43.24 -178.183)" fill="#3a556a"/>
      <path id="Path_11546" data-name="Path 11546" d="M237.691,234.884c-.247-3-.51-13.739-.765-16.478a7.763,7.763,0,0,0-6.2-6.886,23.147,23.147,0,0,1-5.553-2.466,9.983,9.983,0,0,1-3.466-3.014s-.091.682-.209,1.993c-.1,1.074-.252,2.533-.486,4.312-.492,3.86-3.654,16.744-5.109,22.54Z" transform="translate(-192.959 -178.66)" fill="#3a556a"/>
      <path id="Path_11547" data-name="Path 11547" d="M226.324,232.364l0-.169a28.223,28.223,0,0,0-2.207-8.736,35.151,35.151,0,0,1,1.678,8.555c-.671.256-1.336.523-2,.794l-.262.107.094.272,1.112,3.214c-1.52,2.2-2.98,4.437-4.466,6.66-1.479,2.292-2.961,4.585-4.364,6.927,1.661-2.168,3.246-4.39,4.832-6.61,1.549-2.244,3.127-4.471,4.638-6.742l.094-.142-.056-.155-1.13-3.089c.627-.266,1.252-.532,1.872-.812Z" transform="translate(-192.96 -193.765)" fill="#3e6b82"/>
      <path id="Path_11548" data-name="Path 11548" d="M134.922,235.462l1.112-3.214.094-.272-.266-.107c-.664-.27-1.329-.538-2-.793,0-2.5,1.052-6.251,1.259-8.7-.645,2.506-1.733,6.379-1.789,8.88l0,.169.167.075c.62.28,1.245.547,1.871.812l-1.13,3.089-.056.155.1.142c1.511,2.271,3.088,4.5,4.638,6.742,1.586,2.22,3.17,4.442,4.832,6.61-1.4-2.344-2.885-4.635-4.365-6.927C137.9,239.9,136.443,237.66,134.922,235.462Z" transform="translate(-121.357 -192.825)" fill="#3e6b82"/>
      <path id="Path_11549" data-name="Path 11549" d="M212.768,233.724c-.835.2-3.064.838-3.064,1.872s2.218,1.758,3.064,1.871c3.636.486,1.541-.838,1.541-1.871S216.063,232.93,212.768,233.724Z" transform="translate(-187.583 -202.483)" fill="#fe7058"/>
      <path id="Path_11550" data-name="Path 11550" d="M174.8,233.724c.835.2,3.065.838,3.065,1.872s-2.219,1.758-3.065,1.871c-3.636.486-1.541-.838-1.541-1.871S171.506,232.93,174.8,233.724Z" transform="translate(-155.46 -202.483)" fill="#fe7058"/>
      <ellipse id="Ellipse_409" data-name="Ellipse 409" cx="1.825" cy="1.825" rx="1.825" ry="1.825" transform="translate(20.068 31.69) rotate(-13.3)" fill="#ea6453"/>
    </g>
  </g>
</svg>
